# xmcd CD database file
#
# Track frame offsets:
#	150
#	13930
#	19315
#	24195
#	35400
#	47825
#	52950
#	65817
#	81262
#	87672
#	93310
#	103145
#	112992
#	119412
#	133990
#	148382
#	157462
#	162480
#	180057
#	192680
#	205272
#	223510
#	236015
#	247530
#	254182
#	260905
#	269570
#	280522
#	290682
#
# Disc length: 3956 seconds
#
# Revision: 3
# Processed by: cddbd v1.5.2PL0 Copyright (c) Steve Scherf et al.
# Submitted via: CDex 1.85
#
DISCID=c80f721d
DTITLE=Puccini - Tosca 2 - V Callas Di Stefano Gobbi De Sabata
DYEAR=2004
DGENRE=Opera
TTITLE0=Act Two: Tosca e un buon falco
TTITLE1=Act Two: Ha piu forte sapore
TTITLE2=Act Two: O galantuomo come andro la caccia
TTITLE3=Act Two: Meno male
TTITLE4=Act Two: Ov e Angelotti
TTITLE5=Act Two: Ed or fra noi parliam da buoni amici
TTITLE6=Act Two: Sciarrone che dice il Cavalier
TTITLE7=Act Two: Orsu Tosca parlate
TTITLE8=Act Two: Floria Amore
TTITLE9=Act Two: Vittoria Vittoria
TTITLE10=Act Two: Salvatelo Lo Voi
TTITLE11=Act Two: Se la giurata fede dobbo tradir Gia mi struggea l amor
TTITLE12=Act Two: Come tu mi odi
TTITLE13=Act Two: Vissi d arte
TTITLE14=Act Two: Vedi l man giunte io stendo a te
TTITLE15=Act Two: Io tenni la promessa
TTITLE16=Act Two: Tosca finalmente mia
TTITLE17=Act Two: E morto Or gli perdono
TTITLE18=Act Three: Io de sospiri
TTITLE19=Act Three: Lento
TTITLE20=Act Three: Mario Cavaradossi
TTITLE21=Act Three: E lucevan le stelle
TTITLE22=Act Three: Ah Franchigia a Floria Tosca
TTITLE23=Act Three: O dolci mani mansuette e pure
TTITLE24=Act Three: Senti l ora e vicina
TTITLE25=Act Three: Amaro sol per te m era il morire
TTITLE26=Act Three: E non giungono
TTITLE27=Act Three: Come e lunga l attesa
TTITLE28=Act Three: Presto Su Mario
EXTD=Scala di Milano August 1953\nMaria Callas, Giuseppe di Stefano, Tito Gobbi\n YEAR: 2004
EXTT0=
EXTT1=
EXTT2=
EXTT3=
EXTT4=
EXTT5=
EXTT6=
EXTT7=
EXTT8=
EXTT9=
EXTT10=
EXTT11=
EXTT12=
EXTT13=
EXTT14=
EXTT15=
EXTT16=
EXTT17=
EXTT18=
EXTT19=
EXTT20=
EXTT21=
EXTT22=
EXTT23=
EXTT24=
EXTT25=
EXTT26=
EXTT27=
EXTT28=
PLAYORDER=
